<svg width="328" height="184" viewBox="0 0 328 184" fill="none" xmlns="http://www.w3.org/2000/svg">
<g clip-path="url(#clip0_9_1119)">
<mask id="mask0_9_1119" style="mask-type:luminance" maskUnits="userSpaceOnUse" x="0" y="0" width="328" height="184">
<path d="M328 0H0V184H328V0Z" fill="white"/>
</mask>
<g mask="url(#mask0_9_1119)">
<path d="M25.0356 51.1853C24.7203 51.1859 24.4146 51.0763 24.1717 50.8755C23.8977 50.6494 23.7242 50.3245 23.6888 49.9714C23.6534 49.6181 23.7592 49.2655 23.9829 48.9898C24.709 48.1035 25.4935 47.2664 26.3312 46.4842C26.5842 46.2334 26.9261 46.0925 27.2827 46.0925C27.6394 46.0925 27.9813 46.2334 28.2342 46.4842C28.3606 46.6094 28.4611 46.7585 28.5296 46.9227C28.5982 47.0867 28.6334 47.2629 28.6334 47.4406C28.6334 47.6184 28.5982 47.7945 28.5296 47.9587C28.4611 48.1229 28.3606 48.2717 28.2342 48.3969C27.4877 49.0992 26.7847 49.8458 26.1287 50.6331C26.003 50.8046 25.8385 50.9441 25.6486 51.0401C25.4586 51.1361 25.2486 51.1859 25.0356 51.1853Z" fill="#183154"/>
<g opacity="0.3">
<path opacity="0.3" d="M73.6357 76.8466V175.258C73.6375 176.24 73.4444 177.213 73.0673 178.12C72.6904 179.028 72.1371 179.851 71.4393 180.544C70.7416 181.236 69.9135 181.784 69.0024 182.155C68.0914 182.527 67.1158 182.714 66.1318 182.707H53.2698C55.7753 182.707 58.1784 181.714 59.9501 179.946C61.7219 178.177 62.7172 175.779 62.7172 173.278C62.7172 170.777 61.7219 168.379 59.9501 166.611C58.1784 164.843 55.7753 163.849 53.2698 163.849H9.4474C6.94179 163.849 4.5388 162.856 2.76707 161.088C0.995348 159.319 0 156.921 0 154.42C0 151.92 0.995348 149.521 2.76707 147.753C4.5388 145.985 6.94179 144.991 9.4474 144.991H33.3897C35.8954 144.991 38.2985 143.998 40.07 142.229C41.8418 140.461 42.8373 138.063 42.8373 135.562C42.8373 133.062 41.8418 130.663 40.07 128.895C38.2985 127.127 35.8954 126.133 33.3897 126.133H9.4474C6.94179 126.133 4.5388 125.14 2.76707 123.372C0.995348 121.603 3.98177e-07 119.205 3.98177e-07 116.704C3.98177e-07 114.203 0.995348 111.805 2.76707 110.037C4.5388 108.269 6.94179 107.275 9.4474 107.275H40.2863C42.792 107.275 45.195 106.282 46.9666 104.514C48.7384 102.745 49.7338 100.347 49.7338 97.8463C49.7338 95.3456 48.7384 92.9473 46.9666 91.179C45.195 89.4107 42.792 88.4173 40.2863 88.4173H22.4444C19.9387 88.4173 17.5357 87.4238 15.764 85.6557C13.9923 83.8874 12.9969 81.4891 12.9969 78.9884C12.9969 76.4876 13.9923 74.0892 15.764 72.3211C17.5357 70.5528 19.9387 69.5593 22.4444 69.5593H66.1318C68.0914 69.5448 69.978 70.3014 71.3827 71.6656C72.7871 73.0296 73.5966 74.891 73.6357 76.8466Z" fill="#BDDFE9"/>
<path opacity="0.3" d="M254.365 36.369V134.781C254.365 136.753 255.148 138.644 256.546 140.038C257.943 141.433 259.838 142.216 261.815 142.216H274.716C272.211 142.216 269.807 141.223 268.037 139.454C266.265 137.686 265.269 135.288 265.269 132.787C265.269 130.286 266.265 127.888 268.037 126.12C269.807 124.351 272.211 123.358 274.716 123.358H318.512C321.019 123.358 323.421 122.365 325.193 120.597C326.965 118.828 327.959 116.43 327.959 113.929C327.959 111.428 326.965 109.03 325.193 107.262C323.421 105.494 321.019 104.5 318.512 104.5H294.611C292.104 104.5 289.702 103.507 287.93 101.738C286.158 99.9701 285.164 97.5718 285.164 95.0712C285.164 92.5705 286.158 90.1722 287.93 88.4039C289.702 86.6355 292.104 85.6422 294.611 85.6422H318.512C321.019 85.6422 323.421 84.6487 325.193 82.8804C326.965 81.1123 327.959 78.7139 327.959 76.2131C327.959 73.7125 326.965 71.3141 325.193 69.5458C323.421 67.7777 321.019 66.7842 318.512 66.7842H287.701C285.194 66.7842 282.792 65.7909 281.02 64.0225C279.248 62.2542 278.254 59.8559 278.254 57.3552C278.254 54.8544 279.248 52.4563 281.02 50.6879C282.792 48.9196 285.194 47.9263 287.701 47.9263H305.556C308.062 47.9263 310.464 46.9328 312.236 45.1645C314.008 43.3962 315.003 40.998 315.003 38.4972C315.003 35.9965 314.008 33.5982 312.236 31.8299C310.464 30.0616 308.062 29.0683 305.556 29.0683H261.827C259.873 29.0644 257.995 29.8277 256.599 31.1935C255.202 32.5591 254.4 34.4181 254.365 36.369Z" fill="#BDDFE9"/>
</g>
<path d="M261.882 101.281H71.7461V161.236H261.882V101.281Z" fill="#8BBBC6"/>
<path d="M266.728 128.032H62.8387C56.8682 128.032 52.028 132.863 52.028 138.822V171.54C52.028 177.499 56.8682 182.33 62.8387 182.33H266.728C272.698 182.33 277.538 177.499 277.538 171.54V138.822C277.538 132.863 272.698 128.032 266.728 128.032Z" fill="#EBEDED"/>
<path d="M263.272 93.7916H73.1362V122.873H263.272V93.7916Z" fill="#6798A0"/>
<path d="M25.6429 74.637C25.6429 69.6588 27.1195 64.7918 29.8863 60.6497C32.6531 56.5075 36.5864 53.2756 41.1907 51.3609C40.8267 49.4382 40.6458 47.4852 40.6509 45.5284C40.7563 37.8482 43.5982 30.4565 48.6674 24.6772C53.7366 18.8981 60.7019 15.1091 68.3155 13.9891C75.9293 12.869 83.6936 14.4911 90.2178 18.5648C96.7422 22.6385 101.6 28.8975 103.921 36.2206C106.436 35.613 109.014 35.3057 111.601 35.3047C125.259 35.3047 119.834 53.3814 124.557 65.3426C126.015 69.0065 143.924 63.3895 143.924 67.5653C143.924 76.1392 140.512 84.362 134.437 90.4246C128.363 96.4872 120.124 99.8932 111.533 99.8932L54.5114 101.281V81.4932" fill="#BDDFE9"/>
<path d="M67.6163 24.6095L61.435 21.3902L54.4979 22.0098L57.7235 15.8406L57.1027 8.91699L63.2839 12.1363L70.2211 11.5167L66.9955 17.686L67.6163 24.6095Z" fill="#EEF0F1"/>
<path d="M53.4049 49.8254C54.6943 49.8254 55.7397 48.7821 55.7397 47.4951C55.7397 46.2081 54.6943 45.1648 53.4049 45.1648C52.1154 45.1648 51.07 46.2081 51.07 47.4951C51.07 48.7821 52.1154 49.8254 53.4049 49.8254Z" fill="#EEF0F1"/>
<path d="M215.076 78.5972C219.973 78.5831 224.712 76.8783 228.491 73.7724C232.272 70.6666 234.857 66.3511 235.812 61.5583C236.766 56.7658 236.027 51.7914 233.725 47.4798C231.421 43.1682 227.693 39.7849 223.175 37.9044C223.474 36.2875 223.623 34.646 223.619 33.0014C223.615 26.5056 221.27 20.2282 217.014 15.3135C212.758 10.3987 206.875 7.17393 200.435 6.22696C193.997 5.27998 187.431 6.67387 181.936 10.1545C176.44 13.6352 172.381 18.9708 170.498 25.1888C168.389 24.6861 166.229 24.4283 164.061 24.421C160.497 24.421 156.967 25.1217 153.674 26.483C150.381 27.8443 147.389 29.8397 144.869 32.355C142.349 34.8704 140.35 37.8565 138.986 41.1429C137.622 44.4294 136.92 47.952 136.92 51.5092C136.92 55.0665 137.622 58.5888 138.986 61.8753C140.35 65.1618 142.349 68.148 144.869 70.6634C147.389 73.1787 150.381 75.1741 153.674 76.5355C156.967 77.8968 160.497 78.5972 164.061 78.5972H215.076Z" fill="white"/>
<path d="M233.797 55.9812C233.793 61.4697 231.605 66.7324 227.715 70.6121C223.826 74.4918 218.551 76.671 213.053 76.671H163.116C158.65 76.6762 154.255 75.5538 150.34 73.4083C146.425 71.2628 143.118 68.164 140.726 64.4C144.98 67.1171 149.927 68.5573 154.978 68.5487H204.913C210.413 68.5487 215.688 66.3693 219.578 62.4896C223.468 58.6098 225.655 53.3474 225.657 47.8588C225.665 44.3669 224.777 40.9311 223.081 37.8777C226.328 39.6595 229.037 42.2802 230.922 45.465C232.806 48.65 233.799 52.2822 233.797 55.9812Z" fill="#BDDFE9"/>
<path d="M213.793 78.2069H163.858C159.983 78.1767 156.156 77.3412 152.622 75.754C149.088 74.1667 145.924 71.8623 143.331 68.9875C140.739 66.1127 138.774 62.7305 137.563 59.0562C136.352 55.3821 135.921 51.4965 136.298 47.647C136.674 43.7973 137.849 40.0683 139.749 36.6968C141.649 33.3256 144.231 30.3861 147.332 28.0658C150.432 25.7452 153.983 24.0946 157.758 23.2191C161.533 22.3434 165.449 22.2619 169.257 22.9799C171.408 16.7209 175.723 11.4313 181.428 8.05927C187.132 4.68723 193.854 3.45321 200.387 4.57837C206.92 5.70352 212.84 9.11432 217.082 14.1994C221.323 19.2845 223.613 25.7113 223.539 32.328C223.543 33.6801 223.449 35.0308 223.255 36.3691C227.791 38.509 231.46 42.1266 233.66 46.6259C235.859 51.1252 236.459 56.238 235.36 61.1229C234.259 66.0076 231.525 70.3729 227.609 73.5001C223.691 76.6273 218.825 78.33 213.808 78.328L213.793 78.2069ZM163.858 25.2024C157.274 25.3546 151.012 28.0715 146.41 32.7726C141.807 37.4735 139.23 43.785 139.23 50.3575C139.23 56.9301 141.807 63.2418 146.41 67.9427C151.012 72.6438 157.274 75.3607 163.858 75.5129H213.793C218.272 75.5041 222.61 73.9486 226.07 71.1103C229.53 68.2719 231.9 64.3258 232.776 59.9421C233.651 55.5582 232.98 51.007 230.877 47.0611C228.771 43.1152 225.364 40.018 221.231 38.2952L220.218 37.8641L220.421 36.7867C220.705 35.2949 220.847 33.7794 220.84 32.2608C220.834 26.2307 218.657 20.4033 214.708 15.8406C210.757 11.278 205.296 8.28383 199.319 7.40388C193.342 6.52391 187.247 7.81672 182.145 11.0467C177.043 14.2767 173.274 19.2287 171.524 25.0005L171.146 26.2262L169.904 25.9164C167.942 25.4428 165.931 25.2033 163.912 25.2024H163.858Z" fill="#183154"/>
<path d="M267.118 65.3696H63.2301C57.2596 65.3696 52.4196 70.2002 52.4196 76.1591V108.878C52.4196 114.836 57.2596 119.667 63.2301 119.667H267.118C273.089 119.667 277.928 114.836 277.928 108.878V76.1591C277.928 70.2002 273.089 65.3696 267.118 65.3696Z" fill="white"/>
<path d="M268.103 64.4537H64.2154C58.2449 64.4537 53.4049 69.2845 53.4049 75.2432V107.962C53.4049 113.921 58.2449 118.751 64.2154 118.751H268.103C274.073 118.751 278.915 113.921 278.915 107.962V75.2432C278.915 69.2845 274.073 64.4537 268.103 64.4537Z" fill="#EBEDED"/>
<path d="M147.811 64.7771C147.811 73.351 144.399 81.5736 138.324 87.6364C132.249 93.699 124.011 97.105 115.42 97.105H54.6868H53.607V90.4642H105.568C113.093 90.4667 120.383 87.8462 126.179 83.0554C131.974 78.2647 135.911 71.6043 137.311 64.2247H147.798C147.811 64.4 147.811 64.6558 147.811 64.7771Z" fill="#C5D1D1"/>
<path d="M71.7463 100.54C77.0458 100.54 81.3422 96.252 81.3422 90.9626C81.3422 85.6733 77.0458 81.3854 71.7463 81.3854C66.4467 81.3854 62.1504 85.6733 62.1504 90.9626C62.1504 96.252 66.4467 100.54 71.7463 100.54Z" fill="white"/>
<path d="M100.52 100.54C105.82 100.54 110.116 96.252 110.116 90.9626C110.116 85.6733 105.82 81.3854 100.52 81.3854C95.2209 81.3854 90.9246 85.6733 90.9246 90.9626C90.9246 96.252 95.2209 100.54 100.52 100.54Z" fill="white"/>
<path d="M277.658 75.2566V107.962C277.658 110.82 276.521 113.561 274.497 115.582C272.471 117.602 269.725 118.738 266.863 118.738H207.006C205.564 118.738 204.18 118.166 203.16 117.148C202.14 116.13 201.567 114.749 201.567 113.309C201.567 111.87 202.14 110.489 203.16 109.471C204.18 108.453 205.564 107.881 207.006 107.881H262.044C263.486 107.881 264.87 107.309 265.891 106.291C266.91 105.273 267.483 103.892 267.483 102.452C267.483 101.013 266.91 99.632 265.891 98.614C264.87 97.596 263.486 97.0241 262.044 97.0241H226.954C226.24 97.0241 225.532 96.8836 224.871 96.6108C224.212 96.3382 223.613 95.9383 223.108 95.4341C222.602 94.9301 222.201 94.3317 221.929 93.6731C221.655 93.0145 221.514 92.3086 221.514 91.5956C221.514 90.8829 221.655 90.1769 221.929 89.5183C222.201 88.8597 222.602 88.2614 223.108 87.7572C223.613 87.2532 224.212 86.8533 224.871 86.5805C225.532 86.3076 226.24 86.1673 226.954 86.1673H243.811C245.255 86.1673 246.64 85.5947 247.661 84.5755C248.682 83.5562 249.255 82.1737 249.255 80.7321C249.255 79.2907 248.682 77.9082 247.661 76.8889C246.64 75.8697 245.255 75.297 243.811 75.297H218.788C217.346 75.297 215.962 74.725 214.943 73.707C213.922 72.689 213.349 71.3083 213.349 69.8687C213.349 68.429 213.922 67.0483 214.943 66.0303C215.962 65.0122 217.346 64.4402 218.788 64.4402H266.834C268.258 64.4367 269.668 64.7141 270.984 65.2567C272.299 65.7991 273.496 66.5959 274.501 67.6011C275.508 68.6065 276.304 69.8003 276.846 71.1143C277.388 72.428 277.664 73.8359 277.658 75.2566Z" fill="#C5D1D1"/>
<path d="M173.562 66.1243H164.79C164.432 66.1243 164.089 65.9823 163.836 65.7297C163.582 65.4773 163.44 65.1346 163.44 64.7772C163.44 64.4201 163.582 64.0774 163.836 63.8248C164.089 63.5721 164.432 63.4304 164.79 63.4304H173.562C173.92 63.4304 174.264 63.5721 174.517 63.8248C174.77 64.0774 174.912 64.4201 174.912 64.7772C174.912 65.1346 174.77 65.4773 174.517 65.7297C174.264 65.9823 173.92 66.1243 173.562 66.1243Z" fill="#183154"/>
<path d="M267.307 120.435H63.4325C60.211 120.435 57.1213 119.158 54.8435 116.885C52.5655 114.611 51.2859 111.528 51.2859 108.312V75.5802C51.2859 72.365 52.5655 69.2816 54.8435 67.008C57.1213 64.7347 60.211 63.4573 63.4325 63.4573H155.288C155.646 63.4573 155.989 63.5992 156.242 63.8518C156.495 64.1044 156.638 64.4471 156.638 64.8043C156.638 65.1617 156.495 65.5041 156.242 65.7568C155.989 66.0094 155.646 66.1513 155.288 66.1513H63.4325C60.9268 66.1513 58.5238 67.1448 56.7522 68.9129C54.9804 70.6813 53.985 73.0796 53.985 75.5802V108.285C53.985 110.786 54.9804 113.184 56.7522 114.953C58.5238 116.721 60.9268 117.714 63.4325 117.714H267.307C269.813 117.714 272.215 116.721 273.987 114.953C275.759 113.184 276.754 110.786 276.754 108.285V75.5802C276.754 73.0796 275.759 70.6813 273.987 68.9129C272.215 67.1448 269.813 66.1513 267.307 66.1513H190.298C189.939 66.1513 189.596 66.0094 189.343 65.7568C189.09 65.5041 188.948 65.1617 188.948 64.8043C188.948 64.4471 189.09 64.1044 189.343 63.8518C189.596 63.5992 189.939 63.4573 190.298 63.4573H267.321C270.542 63.4573 273.631 64.7347 275.909 67.008C278.188 69.2816 279.467 72.365 279.467 75.5802V108.285C279.471 109.881 279.158 111.461 278.548 112.936C277.939 114.411 277.044 115.751 275.915 116.88C274.785 118.009 273.443 118.904 271.966 119.514C270.488 120.124 268.905 120.437 267.307 120.435Z" fill="#183154"/>
<path d="M181.619 66.1243H178.461C178.103 66.1243 177.76 65.9823 177.507 65.7297C177.254 65.4773 177.112 65.1346 177.112 64.7772C177.112 64.4201 177.254 64.0774 177.507 63.8248C177.76 63.5721 178.103 63.4304 178.461 63.4304H181.619C181.977 63.4304 182.321 63.5721 182.574 63.8248C182.827 64.0774 182.969 64.4201 182.969 64.7772C182.969 65.1346 182.827 65.4773 182.574 65.7297C182.321 65.9823 181.977 66.1243 181.619 66.1243Z" fill="#183154"/>
<path d="M276.754 140.182V172.887C276.754 175.745 275.616 178.486 273.592 180.507C271.567 182.528 268.821 183.663 265.958 183.663H206.102C204.659 183.663 203.275 183.091 202.255 182.073C201.235 181.055 200.663 179.674 200.663 178.235C200.663 176.795 201.235 175.414 202.255 174.396C203.275 173.378 204.659 172.806 206.102 172.806H261.14C262.582 172.806 263.965 172.234 264.984 171.216C266.005 170.198 266.578 168.818 266.578 167.378C266.578 165.938 266.005 164.558 264.984 163.54C263.965 162.522 262.582 161.95 261.14 161.95H226.05C224.607 161.95 223.222 161.378 222.203 160.36C221.182 159.342 220.609 157.961 220.609 156.521C220.609 155.082 221.182 153.701 222.203 152.683C223.222 151.665 224.607 151.093 226.05 151.093H242.933C244.377 151.093 245.763 150.52 246.784 149.501C247.805 148.482 248.378 147.099 248.378 145.658C248.378 144.216 247.805 142.834 246.784 141.814C245.763 140.795 244.377 140.222 242.933 140.222H217.884C216.441 140.222 215.058 139.651 214.037 138.633C213.018 137.615 212.445 136.234 212.445 134.794C212.445 133.354 213.018 131.974 214.037 130.956C215.058 129.938 216.441 129.366 217.884 129.366H265.876C267.305 129.355 268.721 129.627 270.042 130.166C271.364 130.706 272.565 131.501 273.578 132.507C274.589 133.514 275.391 134.71 275.937 136.027C276.482 137.344 276.76 138.757 276.754 140.182Z" fill="#C5D1D1"/>
<path d="M251.422 65.0868C251.064 65.0868 250.721 64.9449 250.469 64.6923C250.215 64.4397 250.072 64.097 250.072 63.7398V34.0114C250.072 33.6543 250.215 33.3116 250.469 33.059C250.721 32.8064 251.064 32.6644 251.422 32.6644C251.78 32.6644 252.124 32.8064 252.376 33.059C252.63 33.3116 252.773 33.6543 252.773 34.0114V63.7398C252.773 64.097 252.63 64.4397 252.376 64.6923C252.124 64.9449 251.78 65.0868 251.422 65.0868Z" fill="#183154"/>
<path d="M262.529 65.4233C262.171 65.4233 261.829 65.2814 261.575 65.0288C261.322 64.7762 261.18 64.4335 261.18 64.0763V9.17268C261.18 8.81544 261.322 8.47283 261.575 8.22021C261.829 7.96759 262.171 7.82568 262.529 7.82568C262.887 7.82568 263.231 7.96759 263.484 8.22021C263.736 8.47283 263.879 8.81544 263.879 9.17268V64.0763C263.879 64.4335 263.736 64.7762 263.484 65.0288C263.231 65.2814 262.887 65.4233 262.529 65.4233Z" fill="#183154"/>
<path d="M261.882 12.0426C265.035 12.0426 267.591 9.49158 267.591 6.34477C267.591 3.19796 265.035 0.646973 261.882 0.646973C258.729 0.646973 256.174 3.19796 256.174 6.34477C256.174 9.49158 258.729 12.0426 261.882 12.0426Z" fill="#FFADAD"/>
<path d="M262.353 14.0761C260.957 14.0787 259.591 13.6675 258.426 12.8944C257.264 12.1213 256.358 11.0212 255.822 9.73341C255.285 8.44559 255.144 7.02799 255.416 5.66019C255.689 4.29238 256.362 3.03587 257.35 2.04982C258.336 1.06378 259.597 0.392556 260.968 0.121162C262.337 -0.150234 263.757 -0.00958835 265.048 0.525286C266.339 1.06016 267.44 1.96519 268.215 3.12577C268.989 4.28633 269.402 5.65024 269.4 7.04472C269.396 8.90845 268.651 10.6948 267.331 12.0127C266.011 13.3305 264.221 14.0725 262.353 14.0761ZM262.353 2.69391C261.491 2.69125 260.646 2.94413 259.928 3.42059C259.21 3.89703 258.649 4.57561 258.316 5.37038C257.984 6.16513 257.896 7.04037 258.064 7.88522C258.23 8.73009 258.643 9.50658 259.253 10.1164C259.863 10.7262 260.638 11.1419 261.485 11.3109C262.33 11.4799 263.208 11.3945 264.006 11.0656C264.802 10.7367 265.484 10.1791 265.964 9.46329C266.443 8.74751 266.699 7.9058 266.699 7.04472C266.699 5.89314 266.243 4.78852 265.428 3.97298C264.614 3.15744 263.507 2.69748 262.353 2.69391Z" fill="#183154"/>
<path d="M195.17 144.438H165.046C159.746 144.438 155.45 148.726 155.45 154.016V154.029C155.45 159.318 159.746 163.606 165.046 163.606H195.17C200.469 163.606 204.766 159.318 204.766 154.029V154.016C204.766 148.726 200.469 144.438 195.17 144.438Z" fill="#7DADB5"/>
<path d="M195.156 164.94H165.046C162.143 164.94 159.359 163.789 157.306 161.74C155.254 159.692 154.1 156.913 154.1 154.016C154.1 151.119 155.254 148.34 157.306 146.291C159.359 144.243 162.143 143.092 165.046 143.092H195.156C198.059 143.092 200.843 144.243 202.896 146.291C204.948 148.34 206.102 151.119 206.102 154.016C206.102 156.913 204.948 159.692 202.896 161.74C200.843 163.789 198.059 164.94 195.156 164.94ZM165.046 145.786C162.859 145.786 160.762 146.653 159.215 148.196C157.669 149.74 156.8 151.833 156.8 154.016C156.8 156.199 157.669 158.292 159.215 159.836C160.762 161.379 162.859 162.246 165.046 162.246H195.156C197.343 162.246 199.441 161.379 200.987 159.836C202.534 158.292 203.402 156.199 203.402 154.016C203.402 151.833 202.534 149.74 200.987 148.196C199.441 146.653 197.343 145.786 195.156 145.786H165.046Z" fill="#183154"/>
<path d="M71.9621 101.901C69.794 101.903 67.674 101.264 65.8699 100.064C64.066 98.8635 62.6592 97.1563 61.8277 95.158C60.9961 93.1595 60.7772 90.9599 61.1985 88.8375C61.62 86.7148 62.6625 84.7647 64.1947 83.2337C65.7268 81.7027 67.6795 80.6596 69.8057 80.2364C71.9318 79.8133 74.136 80.0291 76.1394 80.8566C78.1426 81.6841 79.855 83.0859 81.0598 84.885C82.2646 86.684 82.9077 88.7991 82.9077 90.9629C82.9077 93.8614 81.7549 96.6414 79.7026 98.6922C77.6503 100.743 74.8662 101.897 71.9621 101.901ZM71.9621 82.7328C70.3274 82.7301 68.7286 83.2117 67.3683 84.1166C66.0078 85.0212 64.9471 86.3086 64.3203 87.8155C63.6934 89.3223 63.5287 90.9809 63.847 92.5814C64.1652 94.1816 64.9522 95.6518 66.1081 96.8056C67.2641 97.9592 68.7372 98.7447 70.3405 99.0622C71.9441 99.38 73.606 99.2156 75.1157 98.5899C76.6255 97.9643 77.9154 96.9057 78.8219 95.5478C79.7285 94.1902 80.211 92.5944 80.2084 90.9629C80.2047 88.7813 79.3349 86.6899 77.7892 85.1472C76.2435 83.6046 74.148 82.7362 71.9621 82.7328Z" fill="#183154"/>
<path d="M100.736 101.901C98.5682 101.903 96.4482 101.264 94.6441 100.064C92.8402 98.8635 91.4334 97.1563 90.6019 95.158C89.7703 93.1595 89.5514 90.9599 89.9727 88.8375C90.3942 86.7148 91.4367 84.7647 92.9689 83.2337C94.501 81.7027 96.4537 80.6596 98.5799 80.2364C100.706 79.8133 102.91 80.0291 104.914 80.8566C106.917 81.6841 108.629 83.0859 109.834 84.885C111.039 86.684 111.682 88.7991 111.682 90.9629C111.682 93.8614 110.529 96.6414 108.477 98.6922C106.424 100.743 103.64 101.897 100.736 101.901ZM100.736 82.7328C99.1016 82.7301 97.5028 83.2117 96.1425 84.1166C94.782 85.0212 93.7213 86.3086 93.0945 87.8155C92.4676 89.3223 92.3029 90.9809 92.6212 92.5814C92.9394 94.1816 93.7264 95.6518 94.8823 96.8056C96.0383 97.9592 97.5114 98.7447 99.1147 99.0622C100.718 99.38 102.38 99.2156 103.89 98.5899C105.4 97.9643 106.69 96.9057 107.596 95.5478C108.503 94.1902 108.985 92.5944 108.983 90.9629C108.979 88.7813 108.109 86.6899 106.563 85.1472C105.018 83.6046 102.922 82.7362 100.736 82.7328Z" fill="#183154"/>
<path d="M129.51 100.54C134.81 100.54 139.106 96.252 139.106 90.9626C139.106 85.6733 134.81 81.3854 129.51 81.3854C124.211 81.3854 119.915 85.6733 119.915 90.9626C119.915 96.252 124.211 100.54 129.51 100.54Z" fill="#EEF0F1"/>
<path d="M130.684 102.008C128.519 101.995 126.407 101.342 124.613 100.131C122.819 98.9208 121.425 97.2072 120.607 95.2066C119.788 93.2061 119.581 91.0083 120.013 88.8908C120.444 86.7731 121.495 84.8306 123.031 83.3081C124.568 81.7859 126.522 80.7519 128.647 80.3368C130.772 79.9216 132.972 80.1442 134.97 80.976C136.969 81.8077 138.675 83.2117 139.875 85.0107C141.075 86.8096 141.713 88.9231 141.711 91.0839C141.709 92.5249 141.422 93.9513 140.866 95.2812C140.311 96.6111 139.497 97.8182 138.472 98.8331C137.448 99.8483 136.232 100.651 134.896 101.196C133.559 101.741 132.128 102.017 130.684 102.008ZM130.684 82.8403C129.054 82.8537 127.464 83.3483 126.114 84.2622C124.765 85.1761 123.717 86.4682 123.102 87.9757C122.487 89.483 122.333 91.1384 122.659 92.7332C122.985 94.3277 123.777 95.7903 124.935 96.9366C126.093 98.0826 127.565 98.8611 129.165 99.1738C130.765 99.4864 132.423 99.3194 133.928 98.6935C135.434 98.0675 136.72 97.0109 137.624 95.6567C138.529 94.3026 139.011 92.7115 139.012 91.0839C139.012 89.9956 138.796 88.9182 138.377 87.9136C137.957 86.9091 137.343 85.9973 136.569 85.2308C135.794 84.4646 134.876 83.8587 133.866 83.4484C132.856 83.0381 131.775 82.8315 130.684 82.8403Z" fill="#183154"/>
<path d="M254.876 81.4932H170.768C165.469 81.4932 161.173 85.7809 161.173 91.0704V91.0838C161.173 96.3731 165.469 100.661 170.768 100.661H254.876C260.178 100.661 264.473 96.3731 264.473 91.0838V91.0704C264.473 85.7809 260.178 81.4932 254.876 81.4932Z" fill="#EEF0F1"/>
<path d="M253.73 101.954H169.648C168.178 102.005 166.712 101.761 165.338 101.234C163.964 100.708 162.71 99.9115 161.652 98.8912C160.593 97.8712 159.751 96.6487 159.176 95.2968C158.601 93.9451 158.305 92.4915 158.305 91.0227C158.305 89.554 158.601 88.1004 159.176 86.7487C159.751 85.3968 160.593 84.1743 161.652 83.1542C162.71 82.134 163.964 81.3371 165.338 80.8111C166.712 80.285 168.178 80.0403 169.648 80.0918H253.73C255.202 80.0403 256.667 80.285 258.04 80.8111C259.415 81.3371 260.667 82.134 261.727 83.1542C262.785 84.1743 263.628 85.3968 264.203 86.7487C264.778 88.1004 265.074 89.554 265.074 91.0227C265.074 92.4915 264.778 93.9451 264.203 95.2968C263.628 96.6487 262.785 97.8712 261.727 98.8912C260.667 99.9115 259.415 100.708 258.04 101.234C256.667 101.761 255.202 102.005 253.73 101.954ZM169.648 82.7858C168.536 82.7409 167.427 82.9208 166.386 83.3146C165.346 83.7083 164.396 84.3077 163.593 85.077C162.791 85.8462 162.152 86.7695 161.716 87.7912C161.28 88.8129 161.055 89.9122 161.055 91.0227C161.055 92.1333 161.28 93.2326 161.716 94.2543C162.152 95.276 162.791 96.1993 163.593 96.9685C164.396 97.7378 165.346 98.3372 166.386 98.7309C167.427 99.1247 168.536 99.3046 169.648 99.2597H253.73C254.841 99.3046 255.95 99.1247 256.992 98.7309C258.031 98.3372 258.983 97.7378 259.785 96.9685C260.587 96.1993 261.226 95.276 261.663 94.2543C262.099 93.2326 262.324 92.1333 262.324 91.0227C262.324 89.9122 262.099 88.8129 261.663 87.7912C261.226 86.7695 260.587 85.8462 259.785 85.077C258.983 84.3077 258.031 83.7083 256.992 83.3146C255.95 82.9208 254.841 82.7409 253.73 82.7858H169.648Z" fill="#183154"/>
<path d="M71.9623 129.38C71.6042 129.38 71.2611 129.238 71.008 128.985C70.7549 128.732 70.6127 128.39 70.6127 128.033V119.52C70.6127 119.162 70.7549 118.82 71.008 118.567C71.2611 118.314 71.6042 118.172 71.9623 118.172C72.3202 118.172 72.6635 118.314 72.9167 118.567C73.1698 118.82 73.3118 119.162 73.3118 119.52V128.033C73.3118 128.39 73.1698 128.732 72.9167 128.985C72.6635 129.238 72.3202 129.38 71.9623 129.38Z" fill="#183154"/>
<path d="M261.827 129.38C261.469 129.38 261.127 129.238 260.874 128.985C260.62 128.732 260.479 128.39 260.479 128.033V119.52C260.479 119.162 260.62 118.82 260.874 118.567C261.127 118.314 261.469 118.172 261.827 118.172C262.185 118.172 262.529 118.314 262.783 118.567C263.034 118.82 263.178 119.162 263.178 119.52V128.033C263.178 128.39 263.034 128.732 262.783 128.985C262.529 129.238 262.185 129.38 261.827 129.38Z" fill="#183154"/>
<path d="M44.1732 91.4204C38.3263 91.4298 32.6574 89.414 28.1337 85.7168C23.6103 82.0197 20.5122 76.8703 19.3686 71.1475C18.225 65.4247 19.1067 59.4832 21.8631 54.337C24.6194 49.1907 29.0799 45.1584 34.483 42.9285C34.1188 41.0056 33.9381 39.0527 33.943 37.0959C34.0799 29.4385 36.9363 22.0785 42.003 16.3269C47.0697 10.5753 54.0177 6.80571 61.6094 5.6898C69.201 4.57392 76.9429 6.18415 83.4561 10.2337C89.969 14.2832 94.8301 20.5089 97.1731 27.8017C99.7073 27.2081 102.303 26.9185 104.906 26.9395C113.139 27.4433 120.868 31.0623 126.518 37.0583C132.169 43.0541 135.315 50.9755 135.315 59.2069C135.315 67.4383 132.169 75.3597 126.518 81.3555C120.868 87.3516 113.139 90.9705 104.906 91.4743L44.1732 91.4204Z" fill="#97EDFF"/>
<path opacity="0.7" d="M122.263 31.183C125.297 36.0715 126.97 41.6794 127.11 47.4283C127.249 53.1772 125.849 58.8592 123.054 63.8882C120.26 68.9173 116.172 73.1113 111.212 76.0377C106.252 78.9644 100.6 80.5174 94.8382 80.537H34.1048C29.9374 80.5383 25.8342 79.5109 22.1608 77.5467C24.3227 81.56 27.5336 84.914 31.4522 87.2525C35.3706 89.5908 39.8505 90.8265 44.4161 90.8282H105.149C112.149 90.7835 118.946 88.4766 124.523 84.2532C130.099 80.0298 134.154 74.1171 136.082 67.4006C138.009 60.684 137.704 53.5252 135.213 46.996C132.721 40.4669 128.178 34.9189 122.263 31.183Z" fill="#1A5F7A"/>
<path d="M58.8976 13.3489C59.4345 13.3489 59.9495 13.136 60.3291 12.7571C60.7088 12.3781 60.9221 11.8642 60.9221 11.3284C60.9221 10.7925 60.7088 10.2786 60.3291 9.89966C59.9495 9.52074 59.4345 9.30786 58.8976 9.30786C58.3607 9.30786 57.8456 9.52074 57.4661 9.89966C57.0865 10.2786 56.8731 10.7925 56.8731 11.3284C56.8731 11.8642 57.0865 12.3781 57.4661 12.7571C57.8456 13.136 58.3607 13.3489 58.8976 13.3489Z" fill="#FDFEFF"/>
<path d="M46.4813 22.9663C48.4018 20.4814 50.7236 18.3328 53.3508 16.6085C54.9704 15.5309 53.4454 12.9043 51.8258 13.9953C48.7658 16.0069 46.069 18.5209 43.8495 21.4308C42.6754 22.9933 45.3072 24.502 46.4813 22.9663Z" fill="#FDFEFF"/>
<path d="M201.756 141.111C204.126 141.111 206.049 139.193 206.049 136.828C206.049 134.462 204.126 132.544 201.756 132.544C199.386 132.544 197.464 134.462 197.464 136.828C197.464 139.193 199.386 141.111 201.756 141.111Z" fill="#C5D1D1"/>
<path opacity="0.5" d="M192.632 140.343C193.817 140.343 194.778 139.385 194.778 138.202C194.778 137.019 193.817 136.06 192.632 136.06C191.447 136.06 190.486 137.019 190.486 138.202C190.486 139.385 191.447 140.343 192.632 140.343Z" fill="#C5D1D1"/>
<path d="M202.66 76.1996C205.03 76.1996 206.951 74.2818 206.951 71.9162C206.951 69.5503 205.03 67.6327 202.66 67.6327C200.29 67.6327 198.368 69.5503 198.368 71.9162C198.368 74.2818 200.29 76.1996 202.66 76.1996Z" fill="#C5D1D1"/>
<path opacity="0.5" d="M193.537 75.4318C194.722 75.4318 195.683 74.4728 195.683 73.2899C195.683 72.1071 194.722 71.1483 193.537 71.1483C192.352 71.1483 191.391 72.1071 191.391 73.2899C191.391 74.4728 192.352 75.4318 193.537 75.4318Z" fill="#C5D1D1"/>
<path d="M64.8767 141.017C66.7923 141.017 68.3451 139.467 68.3451 137.555C68.3451 135.644 66.7923 134.094 64.8767 134.094C62.9611 134.094 61.408 135.644 61.408 137.555C61.408 139.467 62.9611 141.017 64.8767 141.017Z" fill="white"/>
<path opacity="0.5" d="M60.4633 145.287C61.4248 145.287 62.2044 144.51 62.2044 143.55C62.2044 142.59 61.4248 141.812 60.4633 141.812C59.5018 141.812 58.7222 142.59 58.7222 143.55C58.7222 144.51 59.5018 145.287 60.4633 145.287Z" fill="white"/>
<path d="M81.4097 140.559C83.3253 140.559 84.8782 139.009 84.8782 137.097C84.8782 135.185 83.3253 133.636 81.4097 133.636C79.4941 133.636 77.941 135.185 77.941 137.097C77.941 139.009 79.4941 140.559 81.4097 140.559Z" fill="white"/>
<path opacity="0.5" d="M73.9596 138.619C74.9211 138.619 75.7007 137.841 75.7007 136.882C75.7007 135.922 74.9211 135.144 73.9596 135.144C72.9981 135.144 72.2185 135.922 72.2185 136.882C72.2185 137.841 72.9981 138.619 73.9596 138.619Z" fill="white"/>
<path d="M155.302 82.6783C158.537 82.6783 161.159 80.0611 161.159 76.8324C161.159 73.6037 158.537 70.9865 155.302 70.9865C152.067 70.9865 149.444 73.6037 149.444 76.8324C149.444 80.0611 152.067 82.6783 155.302 82.6783Z" fill="white"/>
<path opacity="0.5" d="M152.818 90.9631C154.436 90.9631 155.747 89.6545 155.747 88.0402C155.747 86.4258 154.436 85.1172 152.818 85.1172C151.201 85.1172 149.89 86.4258 149.89 88.0402C149.89 89.6545 151.201 90.9631 152.818 90.9631Z" fill="white"/>
<path d="M73.3116 163.593C78.6113 163.593 82.9075 159.305 82.9075 154.016C82.9075 148.726 78.6113 144.438 73.3116 144.438C68.012 144.438 63.7159 148.726 63.7159 154.016C63.7159 159.305 68.012 163.593 73.3116 163.593Z" fill="#FFADAD"/>
<path opacity="0.7" d="M82.5566 153.436C82.5339 155.513 81.8349 157.527 80.5652 159.173C79.2956 160.819 77.524 162.009 75.5178 162.562C73.5115 163.115 71.3794 163.003 69.4429 162.241C67.5064 161.479 65.8705 160.11 64.7822 158.339C66.2611 159.226 67.9556 159.692 69.6813 159.686C72.2261 159.686 74.667 158.677 76.4666 156.881C78.2662 155.085 79.277 152.649 79.277 150.109C79.2831 148.387 78.8164 146.696 77.9275 145.219C79.3453 146.072 80.5172 147.278 81.3287 148.718C82.14 150.158 82.5631 151.784 82.5566 153.436Z" fill="#99394C"/>
<path d="M73.1364 165.061C70.9689 165.061 68.8501 164.42 67.0479 163.218C65.2456 162.016 63.8411 160.308 63.0116 158.309C62.1821 156.311 61.9652 154.112 62.3879 151.99C62.8109 149.868 63.8546 147.919 65.3872 146.39C66.9198 144.86 68.8726 143.818 70.9984 143.396C73.1241 142.974 75.3277 143.191 77.3302 144.019C79.3326 144.846 81.0442 146.248 82.2484 148.047C83.4526 149.846 84.0953 151.96 84.0953 154.124C84.0953 157.025 82.9408 159.807 80.8855 161.858C78.8303 163.909 76.0428 165.061 73.1364 165.061ZM73.1364 145.893C71.5022 145.893 69.9047 146.377 68.5461 147.284C67.1876 148.19 66.1289 149.478 65.504 150.986C64.8793 152.493 64.7165 154.151 65.0363 155.75C65.3561 157.35 66.1441 158.819 67.3006 159.971C68.4571 161.123 69.9301 161.907 71.5332 162.224C73.1364 162.541 74.7975 162.375 76.3065 161.749C77.8156 161.123 79.1047 160.065 80.0107 158.707C80.9166 157.35 81.3988 155.755 81.3962 154.124C81.3925 151.94 80.5206 149.846 78.9721 148.303C77.4235 146.76 75.3246 145.893 73.1364 145.893Z" fill="#183154"/>
<path d="M100.736 163.593C106.036 163.593 110.332 159.305 110.332 154.016C110.332 148.726 106.036 144.438 100.736 144.438C95.4365 144.438 91.1404 148.726 91.1404 154.016C91.1404 159.305 95.4365 163.593 100.736 163.593Z" fill="#FFADAD"/>
<path d="M129.51 163.593C134.81 163.593 139.106 159.305 139.106 154.016C139.106 148.726 134.81 144.438 129.51 144.438C124.211 144.438 119.915 148.726 119.915 154.016C119.915 159.305 124.211 163.593 129.51 163.593Z" fill="#EEF0F1"/>
<path d="M130.684 165.061C128.517 165.061 126.398 164.42 124.596 163.218C122.794 162.016 121.389 160.308 120.56 158.309C119.73 156.311 119.513 154.112 119.936 151.99C120.359 149.868 121.403 147.919 122.935 146.39C124.468 144.86 126.421 143.818 128.546 143.396C130.672 142.974 132.876 143.191 134.878 144.019C136.881 144.846 138.592 146.248 139.796 148.047C141.001 149.846 141.643 151.96 141.643 154.124C141.643 157.025 140.489 159.807 138.434 161.858C136.378 163.909 133.591 165.061 130.684 165.061ZM130.684 145.893C129.05 145.893 127.453 146.377 126.094 147.284C124.736 148.19 123.677 149.478 123.052 150.986C122.427 152.493 122.265 154.151 122.584 155.75C122.904 157.35 123.692 158.819 124.849 159.971C126.005 161.123 127.478 161.907 129.081 162.224C130.684 162.541 132.345 162.375 133.854 161.749C135.364 161.123 136.653 160.065 137.559 158.707C138.464 157.35 138.947 155.755 138.944 154.124C138.94 151.94 138.069 149.846 136.52 148.303C134.971 146.76 132.873 145.893 130.684 145.893Z" fill="#183154"/>
<g opacity="0.4">
<path opacity="0.4" d="M47.5473 63.9013C52.2879 63.9013 56.131 60.0657 56.131 55.3344C56.131 50.6029 52.2879 46.7675 47.5473 46.7675C42.8066 46.7675 38.9637 50.6029 38.9637 55.3344C38.9637 60.0657 42.8066 63.9013 47.5473 63.9013Z" fill="white"/>
<path opacity="0.4" d="M37.668 72.266C40.0383 72.266 41.9598 70.3482 41.9598 67.9826C41.9598 65.6169 40.0383 63.6991 37.668 63.6991C35.2977 63.6991 33.3762 65.6169 33.3762 67.9826C33.3762 70.3482 35.2977 72.266 37.668 72.266Z" fill="white"/>
</g>
<path d="M105.271 92.3633H44.5378C40.0635 92.359 35.6624 91.2283 31.7421 89.0758C27.8217 86.9234 24.5087 83.8187 22.1096 80.0492C19.7105 76.2796 18.3029 71.9669 18.017 67.5105C17.7311 63.0538 18.5762 58.5972 20.4741 54.5531C20.6302 54.2365 20.9048 53.9939 21.2386 53.8771C21.5721 53.7605 21.9383 53.7791 22.2584 53.9292C22.5784 54.0791 22.8268 54.3484 22.95 54.6793C23.0729 55.0101 23.0611 55.3759 22.9168 55.6981C21.4225 58.8613 20.6527 62.3168 20.663 65.814C20.6701 72.134 23.1869 78.1935 27.6621 82.6648C32.137 87.1364 38.2056 89.6552 44.5378 89.6693H105.271C109.702 89.7395 114.096 88.862 118.159 87.096C122.221 85.3299 125.858 82.7163 128.824 79.4306C131.79 76.1452 134.017 72.2638 135.355 68.0478C136.694 63.8317 137.112 59.3785 136.582 54.9877C136.052 50.5968 134.586 46.3701 132.283 42.5916C129.981 38.8132 126.894 35.5706 123.231 33.0821C119.568 30.5933 115.413 28.9162 111.047 28.1635C106.68 27.4107 102.203 27.5996 97.9157 28.7177L96.6741 29.014L96.2961 27.7883C94.0742 20.7671 89.4194 14.7653 83.1661 10.8586C76.9128 6.95195 69.4699 5.39577 62.1712 6.46906C54.8726 7.54232 48.1957 11.1749 43.3371 16.7156C38.4785 22.2563 35.7559 29.343 35.6573 36.7055C35.6546 38.5806 35.8263 40.4521 36.1702 42.2955L36.3861 43.3595L35.3739 43.7906C34.0733 44.3444 32.8264 45.0163 31.649 45.7977C31.4995 45.8951 31.3321 45.9618 31.1567 45.9943C30.9812 46.0266 30.8009 46.0239 30.6266 45.9864C30.452 45.9488 30.2867 45.8771 30.1402 45.7754C29.9937 45.6735 29.8689 45.5438 29.7729 45.3935C29.5802 45.0933 29.5145 44.729 29.5904 44.3806C29.6663 44.0322 29.8777 43.7279 30.1778 43.5347C31.1987 42.8716 32.2627 42.2776 33.3629 41.7566C32.2664 33.5268 34.2546 25.1829 38.9456 18.3269C43.6367 11.4708 50.7 6.58589 58.7793 4.61007C66.8588 2.63424 75.3845 3.70679 82.72 7.62177C90.0555 11.5368 95.6833 18.0182 98.523 25.8217C103.175 24.789 107.994 24.7516 112.662 25.7123C117.33 26.6727 121.741 28.6095 125.605 31.3948C129.468 34.1799 132.697 37.7507 135.078 41.8714C137.459 45.9923 138.938 50.5696 139.418 55.3023C139.898 60.0349 139.368 64.8154 137.862 69.3286C136.357 73.842 133.911 77.9858 130.685 81.4873C127.459 84.9888 123.526 87.7684 119.146 89.643C114.765 91.5177 110.037 92.4448 105.271 92.3633Z" fill="#183154"/>
<path d="M154.694 179.029H185.344C186.218 179.029 187.055 179.376 187.673 179.992C188.29 180.608 188.637 181.444 188.637 182.316H151.401C151.401 181.444 151.748 180.608 152.366 179.992C152.983 179.376 153.821 179.029 154.694 179.029Z" fill="#C5D1D1"/>
<path d="M113.625 179.029H144.275C145.148 179.029 145.986 179.376 146.604 179.992C147.221 180.608 147.568 181.444 147.568 182.316H110.332C110.332 181.444 110.679 180.608 111.297 179.992C111.914 179.376 112.752 179.029 113.625 179.029Z" fill="#C5D1D1"/>
<path d="M265.876 184H62.0829C58.8614 184 55.7719 182.723 53.4939 180.449C51.2159 178.176 49.9362 175.092 49.9362 171.877V139.158C49.9362 135.943 51.2159 132.859 53.4939 130.586C55.7719 128.313 58.8614 127.035 62.0829 127.035H265.876C269.097 127.035 272.187 128.313 274.466 130.586C276.744 132.859 278.022 135.943 278.022 139.158V171.863C278.025 173.456 277.711 175.034 277.102 176.507C276.492 177.979 275.598 179.317 274.47 180.444C273.343 181.571 272.003 182.466 270.527 183.076C269.054 183.686 267.472 184 265.876 184ZM62.0829 129.702C59.5773 129.702 57.1743 130.696 55.4025 132.464C53.6308 134.232 52.6355 136.631 52.6355 139.131V171.836C52.6355 174.337 53.6308 176.735 55.4025 178.504C57.1743 180.272 59.5773 181.266 62.0829 181.266H265.876C268.383 181.266 270.785 180.272 272.557 178.504C274.329 176.735 275.324 174.337 275.324 171.836V139.158C275.324 136.658 274.329 134.259 272.557 132.491C270.785 130.723 268.383 129.729 265.876 129.729L62.0829 129.702Z" fill="#183154"/>
<path d="M128.957 20.7303C130.627 20.7303 131.98 19.3794 131.98 17.713C131.98 16.0466 130.627 14.6957 128.957 14.6957C127.287 14.6957 125.934 16.0466 125.934 17.713C125.934 19.3794 127.287 20.7303 128.957 20.7303Z" fill="#E0F0F5"/>
<path opacity="0.7" d="M110.332 154.487C110.333 156.585 109.644 158.626 108.371 160.295C107.097 161.964 105.31 163.17 103.284 163.726C101.257 164.283 99.1033 164.161 97.1533 163.377C95.2033 162.594 93.5649 161.193 92.4901 159.391C93.969 160.278 95.6634 160.743 97.3892 160.738C99.9342 160.738 102.375 159.728 104.174 157.932C105.974 156.136 106.985 153.7 106.985 151.16C106.991 149.438 106.524 147.747 105.635 146.271C107.066 147.115 108.251 148.317 109.075 149.758C109.898 151.199 110.332 152.829 110.332 154.487Z" fill="#99394C"/>
<path d="M101.91 165.061C99.7429 165.061 97.6241 164.42 95.8218 163.218C94.0198 162.016 92.6151 160.308 91.7856 158.309C90.956 156.311 90.7391 154.112 91.1619 151.99C91.5848 149.868 92.6286 147.919 94.1611 146.39C95.6937 144.86 97.6466 143.818 99.7723 143.396C101.898 142.974 104.102 143.191 106.104 144.019C108.107 144.846 109.818 146.248 111.022 148.047C112.227 149.846 112.869 151.96 112.869 154.124C112.869 157.025 111.715 159.807 109.659 161.858C107.604 163.909 104.817 165.061 101.91 165.061ZM101.91 145.893C100.276 145.893 98.6787 146.377 97.32 147.284C95.9616 148.19 94.9029 149.478 94.278 150.986C93.6533 152.493 93.4906 154.151 93.8102 155.75C94.13 157.35 94.9182 158.819 96.0747 159.971C97.2312 161.123 98.704 161.907 100.307 162.224C101.91 162.541 103.571 162.375 105.081 161.749C106.59 161.123 107.879 160.065 108.785 158.707C109.691 157.35 110.173 155.755 110.17 154.124C110.166 151.94 109.295 149.846 107.746 148.303C106.197 146.76 104.099 145.893 101.91 145.893Z" fill="#183154"/>
</g>
</g>
<defs>
<clipPath id="clip0_9_1119">
<rect width="328" height="184" fill="white"/>
</clipPath>
</defs>
</svg>

